<?xml version="1.0" encoding="UTF-8"?>
<svg id="Layer_1" xmlns="http://www.w3.org/2000/svg" version="1.1" viewBox="0 0 32 32">
  <!-- Generator: Adobe Illustrator 30.4.0, SVG Export Plug-In . SVG Version: 2.1.4 Build 226)  -->
  <defs>
    <style>
      .st0 {
        isolation: isolate;
      }

      .st1 {
        fill: #fff;
      }

      .st2 {
        fill: #0a0a0a;
      }
    </style>
  </defs>
  <rect class="st2" width="32" height="32" rx="6.5" ry="6.5"/>
  <g class="st0">
    <g>
      <path class="st1" d="M5.3,23.6v-15.3h.6v15.3h-.6ZM5.6,8.8v-.5h3.3v.5s-3.3,0-3.3,0ZM5.6,23.6v-.5h3.3v.5s-3.3,0-3.3,0Z"/>
      <polygon class="st1" points="9.6 24.4 4.5 24.4 4.5 7.6 9.6 7.6 9.6 9.6 6.6 9.6 6.6 22.4 9.6 22.4 9.6 24.4"/>
    </g>
    <g>
      <path class="st1" d="M15.4,22c-.7,0-1.3-.1-1.8-.4s-1-.6-1.4-1.1l.4-.4c.3.4.7.8,1.2,1,.4.2,1,.3,1.6.3s1-.1,1.4-.3c.5-.2.8-.6,1.1-1.1.3-.5.5-1.2.5-2v-9.2h.6v9.3c0,.9-.2,1.6-.5,2.2s-.8,1-1.4,1.3-1.1.4-1.7.4Z"/>
      <path class="st1" d="M15.3,22.9c-.8,0-1.5-.4-2.1-.7-.6-.3-1.1-.7-1.6-1.3l-.4-.5,1.5-1.5.5.7c.3.4.6.6.9.8.6.3,1.5.4,2.4,0,.3-.2.6-.4.8-.8.2-.4.3-.9.3-1.6v-9.9h2.1v10.1c0,1-.2,1.9-.6,2.6s-1,1.2-1.7,1.6c-.7.3-1.4.5-2.1.5h0Z"/>
    </g>
    <g>
      <path class="st1" d="M23.2,8.8v-.5h3.3v.5h-3.3ZM23.2,23.6v-.5h3.3v.5h-3.3ZM26.2,23.6v-15.3h.6v15.3h-.6Z"/>
      <polygon class="st1" points="27.5 24.4 22.4 24.4 22.4 22.4 25.4 22.4 25.4 9.6 22.4 9.6 22.4 7.6 27.5 7.6 27.5 24.4"/>
    </g>
  </g>
</svg>