<?xml version="1.0" encoding="UTF-8"?>
<svg id="Layer_2" xmlns="http://www.w3.org/2000/svg" version="1.1" viewBox="0 0 1476.4 731.7">
  <!-- Generator: Adobe Illustrator 30.4.0, SVG Export Plug-In . SVG Version: 2.1.4 Build 226)  -->
  <defs>
    <style>
      .st0 {
        fill: #ffc80a;
      }

      .st1 {
        fill: #2c363c;
      }

      .st2 {
        fill: #f58843;
      }

      .st3 {
        fill: #f7975a;
      }

      .st4 {
        fill: #fbe584;
      }
    </style>
  </defs>
  <g id="Layer_1-2">
    <g>
      <path class="st2" d="M1459.8,498.5c-2.2,1-17.3,4.6-20,4.8-4.6.4-18.3-2.3-19.8-1.4-.4.3-2.3,6.4-3.7,8.3-9.4,13.2-21.7,16.7-37.3,15.4-4.9-.4-9-2.8-14-2.8-17.7.2-23.6,15.8-49.3,10-8.3-1.9-18.5-13-20.2-13.4-1.2-.2-15.9,7.2-22.2,7.7-7.2.6-23.2-1.5-29.6-4.8-2.1-1.1-9.2-9.9-9.6-12.1-1.2-6.6,2.6-19.2,1.5-28.6-1.3-11-8.3-24.5-9.5-35.3-11.5-107.3,149.5-140.6,209.7-67.2,17.6,21.5,16.5,40.9,24.5,65.1,2.8,8.7,14.8,28.6,13.7,35.3-.6,3.3-12,17.9-14.1,18.8M1345.7,362.8c-5.1,1.1-9.4,5.1-6.1,10.2,3.8,5.7,10.3,3.2,16.2,4.6,12.4,3,28.2,8.6,38.9,15.6,3.9,2.5,14.2,13.1,16.6,13.9,6.2,1.9,14.3-4,10.2-10.2-6.8-10.2-30-24.8-41.8-28.7-7.1-2.4-27.3-6.8-34-5.3"/>
      <path class="st0" d="M1459.8,498.5c4.1,9.6,11.1,18.2,13.9,28.5,8.8,32.6-7.1,56-4.2,85.8.7,6.9,4.8,7.2,1.3,16-5.8,14.4-28.7,18.4-42.3,17-6.1-.7-16.3-6.7-19.1-6.5-3,.2-8,6.8-12,9-29.7,16.5-40.8-7.8-63.2-5.5-12.9,1.3-14.8,5-29.8.6-17.1-5-22.3-22.2-25.1-23.1-2.2-.7-9.9,3.1-15.5,2.9-14.3-.5-40.7-12.2-39.4-29.4.3-4.5,9.8-15.5,12-23.2,4.2-14.9,3.8-32.7,7.2-48,6.4,3.2,22.4,5.4,29.6,4.8,6.3-.5,21-8,22.2-7.7,1.8.3,12,11.5,20.2,13.4,25.7,5.8,31.6-9.8,49.3-10,5,0,9.1,2.4,14,2.8,15.7,1.2,28-2.2,37.3-15.4,1.3-1.9,3.3-8,3.7-8.3,1.5-.9,15.1,1.7,19.8,1.4,2.7-.2,17.9-3.8,20-4.8M1436.8,514.7c-6.4,2,.7,8.6,1.8,12.1,2.2,6.5,2.6,13.5,1.8,20.4-.6,5.2-6.4,8.5.2,14.4,7.6,6.8,15-7.5,15.8-14.5,1.1-9.7-6.9-36.5-19.6-32.5"/>
      <path class="st3" d="M1345.7,362.8c6.7-1.5,26.9,3,34,5.3,11.7,3.9,34.9,18.5,41.8,28.7,4.2,6.2-4,12-10.2,10.2-2.4-.7-12.7-11.4-16.6-13.9-10.7-6.9-26.4-12.6-38.9-15.6-5.9-1.4-12.4,1.1-16.2-4.6-3.4-5.1.9-9,6.1-10.2"/>
      <path class="st4" d="M1436.8,514.7c12.7-4.1,20.8,22.8,19.6,32.5-.8,6.9-8.2,21.3-15.8,14.5-6.6-6-.8-9.2-.2-14.4.8-6.8.4-13.9-1.8-20.4-1.2-3.5-8.2-10.1-1.8-12.1"/>
      <path class="st1" d="M85.2,652.5c5.1,17.3,13.2,41.8,23.8,56.2,4.5,6.1,23.4,23,30.6,23,7.1,0,31.4-5,38.5-7.7,40.4-15.4,45.8-44.9,62.3-78.5,41-83.2,81.8-159.6,117.1-246.3,41-100.4,138.8-315.1,12.5-387-71.2-40.6-177.1,28.8-223.8,82.9-13.4,15.6-23.8,37.4-36.3,51.8-1.4,1.6-1.6,3.4-4.5,2.7-7.6-26.9-23.6-70.8-57.1-71.9C27.5,77,4.4,100.5,0,120c-.6,117.6,14,238.8,40.4,353.2,13.3,57.5,28.1,123.2,44.8,179.3M140.5,231.7c31.2-57.3,120.8-165.1,190-170.2,20-1.5,31.1,12.1,37.2,30,16,47.4-26,153.5-45.5,200.1-37,88.3-79.6,174.4-123,259.6-2.7,5.2-12.9,32-15.5,33.3-1.7.9-4.1.2-6.1.4-10.2-59.3-22.9-118.1-33.2-177.4-5-29-9.4-58-13.7-87.1-6.2-41.8-11.8-49.2,9.8-88.8"/>
      <path class="st1" d="M433.8,287.9c.9,80.7,2,155,26.4,232.9,11.3,36.1,39.1,88.8,84.4,82.9,15.3-2,51.8-23.9,62-35.6,25.5-29.4,34.8-113,46.9-153.1,2-6.4,4.4-15.8,9.1-20.5-3.2,35.1-4.8,71.1-3.2,106.5,1.9,43,11.8,149,43.3,179.2,25.3,24.2,63.8-2.3,76.1-27.9,8.1-16.8-3.3-36-6.9-52.5-22.7-104.7-8.2-209.5-24.2-313.5-1.2-7.8-.3-25.6-9.8-30.2-7-3.4-46-.5-54.3,3.4-9.1,4.3-9.4,11.5-14.8,18.8-44.8,59.5-60,124-74.6,196-4.1,20.2-6.8,62.2-18.9,77.2-10.2,12.7-19.7-20.9-21.1-28.3-16.4-85.2-24.6-172.4-46-256.5-2.2-8.7-14.1-27.3-23.2-29.6-14.8-3.8-41.5,2.2-49,16.8-6.9,13.4-2.4,21.7-2.2,34.5"/>
      <path class="st1" d="M930.9,620c86,12.7,138.7-25.1,170.6-102.8,25.7-62.5,12.3-127.9-9.8-189.2-19.9-55-58.2-109.6-123.6-105.9-197,11.1-243.4,367.5-37.1,397.9M946.7,279.2c20.3-21,49.2-8.2,69,7.1,57.7,44.7,91.6,200.9,38.3,257.1-16.6,17.5-52,21.5-74.6,16.8-113.7-23.4-94.3-217.1-32.8-281"/>
    </g>
  </g>
</svg>